
<svg t="1736417486444" class="icon" viewBox="0 0 1024 1024" version="1.1" xmlns="http://www.w3.org/2000/svg" p-id="4325" width="200" height="200">
<path d="M212.08137324 554.80606595a27.61681602 27.61681602 0 0 1-27.61681603-27.61681732v-68.76587299a27.61681602 27.61681602 0 0 1 55.23363206 0v68.76587299a27.61681602 27.61681602 0 0 1-27.61681603 27.61681732zM660.02613665 554.80606595a27.61681602 27.61681602 0 0 1-27.6168173-27.61681732v-68.76587299a27.61681602 27.61681602 0 0 1 55.23363334 0v68.76587299a27.61681602 27.61681602 0 0 1-27.61681604 27.61681732zM465.60374835 688.74762492a187.51818335 187.51818335 0 0 1-71.52755421-13.25607191 27.61681602 27.61681602 0 0 1 21.54111685-50.81494184 148.02613665 148.02613665 0 0 0 99.97287472 0 27.61681602 27.61681602 0 0 1 21.54111684 50.81494184 187.51818335 187.51818335 0 0 1-71.5275542 13.25607191z" p-id="4326" fill="#1890ff"></path>
<path d="M928.73776039 652.01725947h-71.80372323a27.61681602 27.61681602 0 0 1-27.61681602-27.61681605V346.29910124a23.19812583 23.19812583 0 0 0-20.43644462-24.57896709H183.91222045a27.61681602 27.61681602 0 0 1-27.61681603-27.61681602v-104.94390299a77.87942242 77.87942242 0 0 1 75.67007667-79.53643141h696.7722793a77.60325469 77.60325469 0 0 1 75.39390894 79.53643141v383.04524518a77.60325469 77.60325469 0 0 1-75.39390894 79.81259915z m-44.1869059-55.23363337h44.1869059a22.92195809 22.92195809 0 0 0 20.16027559-24.57896578V189.15941514a22.64578907 22.64578907 0 0 0-20.16027559-24.30279805H231.96548109a22.92195809 22.92195809 0 0 0-20.43644462 24.30279805v77.87942243h597.35174005A77.87942242 77.87942242 0 0 1 884.55085449 346.29910124z" p-id="4327" fill="#1890ff"></path>
<path d="M450.41449972 937.02280533a57.4429778 57.4429778 0 0 1-50.53877412-30.65466627l-51.36727861-96.65885805H101.89027555a77.87942242 77.87942242 0 0 1-75.39390894-79.81259914V346.29910124a77.87942242 77.87942242 0 0 1 75.39390894-79.81259915h696.77227931A77.87942242 77.87942242 0 0 1 874.33263153 346.29910124v383.59758063a77.87942242 77.87942242 0 0 1-75.67007667 79.81259914h-248.55134814l-50.26260639 96.38269031a57.16681008 57.16681008 0 0 1-49.98643736 30.93083401zM101.89027555 322.27247091a22.92195809 22.92195809 0 0 0-20.16027557 24.57896707v383.04524389a22.92195809 22.92195809 0 0 0 20.16027557 24.57896709h258.21723435a35.62569324 35.62569324 0 0 1 31.20700174 18.22709886l57.44297909 107.42941518 27.61681603 12.97990417-24.57896708-12.70373515 55.23363335-106.60091197a35.62569324 35.62569324 0 0 1 31.7593385-19.33177109h259.59807561a23.19812583 23.19812583 0 0 0 20.43644331-24.57896709V346.29910124a23.19812583 23.19812583 0 0 0-20.43644331-24.57896709zM556.18690591 799.21489163z" p-id="4328" fill="#1890ff"></path>
</svg>